# xmcd
#
# Track frame offsets: 
#        150
#        17733
#        31375
#        43308
#        67096
#        84249
#        100080
#        113581
#        131746
#        151924
#        164872
#
# Disc length: 2388 seconds
#
# Revision: 0
# Processed by: cddbd v1.5.1PL0 Copyright (c) Steve Scherf et al.
# Submitted via: ExactAudioCopy v0.95a5
#
DISCID=8f09520b
DTITLE=Johnny Cash - 1996-07-09 Irving Plaza, New York, NY
DYEAR=1996
DGENRE=Country
TTITLE0=Will the Circle Be Unbroken
TTITLE1=Big River
TTITLE2=I Still Miss Someone
TTITLE3=Orange Blossom Special
TTITLE4=I'll Be Waiting
TTITLE5=Filler: Bird on a Wire
TTITLE6=Filler: The Eyes of Men
TTITLE7=Filler: Big River
TTITLE8=Filler: Sunday Morning Coming Down
TTITLE9=Filler: Get Rhthym When You Get the Blues
TTITLE10=Filler: Folsom Prison Blues
EXTD=
EXTT0=
EXTT1=
EXTT2=
EXTT3=
EXTT4=
EXTT5=
EXTT6=
EXTT7=
EXTT8=
EXTT9=
EXTT10=
PLAYORDER=
